<svg height="1438" width="720" xmlns="http://www.w3.org/2000/svg">
<rect height="1438" fill="#555" width="720"></rect>
<text fill="#7f7" font-family="Courier New" font-size="12" xml:space="preserve">
<tspan x="10" y="26">└─┬ gulp-rsync@0.0.7 </tspan>
<tspan x="10" y="42">  ├─┬ better-assert@1.0.2 </tspan>
<tspan x="10" y="58">  │ └── callsite@1.0.0 </tspan>
<tspan x="10" y="74">  ├─┬ gulp-util@3.0.8 </tspan>
<tspan x="10" y="90">  │ ├── array-differ@1.0.0 </tspan>
<tspan x="10" y="106">  │ ├── array-uniq@1.0.3 </tspan>
<tspan x="10" y="122">  │ ├── beeper@1.1.1 </tspan>
<tspan x="10" y="138">  │ ├─┬ chalk@1.1.3 </tspan>
<tspan x="10" y="154">  │ │ ├── ansi-styles@2.2.1 </tspan>
<tspan x="10" y="170">  │ │ ├── escape-string-regexp@1.0.5 </tspan>
<tspan x="10" y="186">  │ │ ├─┬ has-ansi@2.0.0 </tspan>
<tspan x="10" y="202">  │ │ │ └── ansi-regex@2.1.1 </tspan>
<tspan x="10" y="218">  │ │ ├── strip-ansi@3.0.1 </tspan>
<tspan x="10" y="234">  │ │ └── supports-color@2.0.0 </tspan>
<tspan x="10" y="250">  │ ├── dateformat@2.0.0 </tspan>
<tspan x="10" y="266">  │ ├─┬ fancy-log@1.3.0 </tspan>
<tspan x="10" y="282">  │ │ └── time-stamp@1.0.1 </tspan>
<tspan x="10" y="298">  │ ├─┬ gulplog@1.0.0 </tspan>
<tspan x="10" y="314">  │ │ └── glogg@1.0.0 </tspan>
<tspan x="10" y="330">  │ ├─┬ has-gulplog@0.1.0 </tspan>
<tspan x="10" y="346">  │ │ └── sparkles@1.0.0 </tspan>
<tspan x="10" y="362">  │ ├── lodash._reescape@3.0.0 </tspan>
<tspan x="10" y="378">  │ ├── lodash._reevaluate@3.0.0 </tspan>
<tspan x="10" y="394">  │ ├── lodash._reinterpolate@3.0.0 </tspan>
<tspan x="10" y="410">  │ ├─┬ lodash.template@3.6.2 </tspan>
<tspan x="10" y="426">  │ │ ├── lodash._basecopy@3.0.1 </tspan>
<tspan x="10" y="442">  │ │ ├── lodash._basetostring@3.0.1 </tspan>
<tspan x="10" y="458">  │ │ ├── lodash._basevalues@3.0.0 </tspan>
<tspan x="10" y="474">  │ │ ├── lodash._isiterateecall@3.0.9 </tspan>
<tspan x="10" y="490">  │ │ ├─┬ lodash.escape@3.2.0 </tspan>
<tspan x="10" y="506">  │ │ │ └── lodash._root@3.0.1 </tspan>
<tspan x="10" y="522">  │ │ ├─┬ lodash.keys@3.1.2 </tspan>
<tspan x="10" y="538">  │ │ │ ├── lodash._getnative@3.9.1 </tspan>
<tspan x="10" y="554">  │ │ │ ├── lodash.isarguments@3.1.0 </tspan>
<tspan x="10" y="570">  │ │ │ └── lodash.isarray@3.0.4 </tspan>
<tspan x="10" y="586">  │ │ ├── lodash.restparam@3.6.1 </tspan>
<tspan x="10" y="602">  │ │ └── lodash.templatesettings@3.1.1 </tspan>
<tspan x="10" y="618">  │ ├── minimist@1.2.0 </tspan>
<tspan x="10" y="634">  │ ├─┬ multipipe@0.1.2 </tspan>
<tspan x="10" y="650">  │ │ └─┬ duplexer2@0.0.2 </tspan>
<tspan x="10" y="666">  │ │   └── readable-stream@1.1.14 </tspan>
<tspan x="10" y="682">  │ ├── object-assign@3.0.0 </tspan>
<tspan x="10" y="698">  │ ├── replace-ext@0.0.1 </tspan>
<tspan x="10" y="714">  │ ├─┬ through2@2.0.3 </tspan>
<tspan x="10" y="730">  │ │ └─┬ readable-stream@2.2.6 </tspan>
<tspan x="10" y="746">  │ │   ├── buffer-shims@1.0.0 </tspan>
<tspan x="10" y="762">  │ │   ├── isarray@1.0.0 </tspan>
<tspan x="10" y="778">  │ │   ├── process-nextick-args@1.0.7 </tspan>
<tspan x="10" y="794">  │ │   └── util-deprecate@1.0.2 </tspan>
<tspan x="10" y="810">  │ └─┬ vinyl@0.5.3 </tspan>
<tspan x="10" y="826">  │   ├── clone@1.0.2 </tspan>
<tspan x="10" y="842">  │   └── clone-stats@0.0.1 </tspan>
<tspan x="10" y="858">  ├─┬ lodash.every@2.4.1 </tspan>
<tspan x="10" y="874">  │ ├─┬ lodash.createcallback@2.4.4 </tspan>
<tspan x="10" y="890">  │ │ ├─┬ lodash._basecreatecallback@2.4.1 </tspan>
<tspan x="10" y="906">  │ │ │ ├─┬ lodash._setbinddata@2.4.1 </tspan>
<tspan x="10" y="922">  │ │ │ │ └── lodash.noop@2.4.1 </tspan>
<tspan x="10" y="938">  │ │ │ ├─┬ lodash.bind@2.4.1 </tspan>
<tspan x="10" y="954">  │ │ │ │ ├─┬ lodash._createwrapper@2.4.1 </tspan>
<tspan x="10" y="970">  │ │ │ │ │ ├─┬ lodash._basebind@2.4.1 </tspan>
<tspan x="10" y="986">  │ │ │ │ │ │ └── lodash._basecreate@2.4.1 </tspan>
<tspan x="10" y="1002">  │ │ │ │ │ └── lodash._basecreatewrapper@2.4.1 </tspan>
<tspan x="10" y="1018">  │ │ │ │ └── lodash._slice@2.4.1 </tspan>
<tspan x="10" y="1034">  │ │ │ ├── lodash.identity@2.4.1 </tspan>
<tspan x="10" y="1050">  │ │ │ └── lodash.support@2.4.1 </tspan>
<tspan x="10" y="1066">  │ │ ├─┬ lodash._baseisequal@2.4.1 </tspan>
<tspan x="10" y="1082">  │ │ │ ├─┬ lodash._getarray@2.4.1 </tspan>
<tspan x="10" y="1098">  │ │ │ │ └── lodash._arraypool@2.4.1 </tspan>
<tspan x="10" y="1114">  │ │ │ ├─┬ lodash._releasearray@2.4.1 </tspan>
<tspan x="10" y="1130">  │ │ │ │ └── lodash._maxpoolsize@2.4.1 </tspan>
<tspan x="10" y="1146">  │ │ │ ├── lodash.forin@2.4.1 </tspan>
<tspan x="10" y="1162">  │ │ │ └── lodash.isfunction@2.4.1 </tspan>
<tspan x="10" y="1178">  │ │ ├── lodash.isobject@2.4.1 </tspan>
<tspan x="10" y="1194">  │ │ ├─┬ lodash.keys@2.4.1 </tspan>
<tspan x="10" y="1210">  │ │ │ ├── lodash._isnative@2.4.1 </tspan>
<tspan x="10" y="1226">  │ │ │ └── lodash._shimkeys@2.4.1 </tspan>
<tspan x="10" y="1242">  │ │ └── lodash.property@2.4.1 </tspan>
<tspan x="10" y="1258">  │ └─┬ lodash.forown@2.4.1 </tspan>
<tspan x="10" y="1274">  │   ├── lodash._objecttypes@2.4.1 </tspan>
<tspan x="10" y="1290">  │   └── lodash.keys@2.4.1 </tspan>
<tspan x="10" y="1306">  ├── lodash.isstring@2.4.1 </tspan>
<tspan x="10" y="1322">  └─┬ through2@0.6.5 </tspan>
<tspan x="10" y="1338">    ├─┬ readable-stream@1.0.34 </tspan>
<tspan x="10" y="1354">    │ ├── core-util-is@1.0.2 </tspan>
<tspan x="10" y="1370">    │ ├── inherits@2.0.3 </tspan>
<tspan x="10" y="1386">    │ ├── isarray@0.0.1 </tspan>
<tspan x="10" y="1402">    │ └── string_decoder@0.10.31 </tspan>
<tspan x="10" y="1418">    └── xtend@4.0.1</tspan>
</text>
</svg>
